<mxfile host="65bd71144e">
    <diagram id="uzrPbLCuuflunN7XB7qQ" name="Page-1">
        <mxGraphModel dx="1540" dy="563" grid="1" gridSize="10" guides="1" tooltips="1" connect="1" arrows="1" fold="1" page="1" pageScale="1" pageWidth="850" pageHeight="1100" math="0" shadow="0">
            <root>
                <mxCell id="0"/>
                <mxCell id="1" parent="0"/>
                <mxCell id="2" value="order" style="swimlane;whiteSpace=wrap;html=1;" vertex="1" parent="1">
                    <mxGeometry x="230" y="150" width="200" height="200" as="geometry"/>
                </mxCell>
                <mxCell id="3" value="orderItem" style="swimlane;whiteSpace=wrap;html=1;" vertex="1" parent="1">
                    <mxGeometry x="540" y="150" width="200" height="200" as="geometry"/>
                </mxCell>
                <mxCell id="4" value="dealer" style="swimlane;whiteSpace=wrap;html=1;" vertex="1" parent="1">
                    <mxGeometry x="-30" y="150" width="200" height="200" as="geometry"/>
                </mxCell>
                <mxCell id="5" value="1:n" style="text;html=1;align=center;verticalAlign=middle;resizable=0;points=[];autosize=1;strokeColor=none;fillColor=none;" vertex="1" parent="1">
                    <mxGeometry x="180" y="235" width="40" height="30" as="geometry"/>
                </mxCell>
                <mxCell id="6" value="n:n" style="text;html=1;align=center;verticalAlign=middle;resizable=0;points=[];autosize=1;strokeColor=none;fillColor=none;" vertex="1" parent="1">
                    <mxGeometry x="460" y="235" width="40" height="30" as="geometry"/>
                </mxCell>
                <mxCell id="7" value="dealer" style="swimlane;whiteSpace=wrap;html=1;" vertex="1" parent="1">
                    <mxGeometry x="-30" y="410" width="200" height="200" as="geometry"/>
                </mxCell>
                <mxCell id="9" value="productOfCart" style="swimlane;whiteSpace=wrap;html=1;startSize=23;" vertex="1" parent="1">
                    <mxGeometry x="400" y="410" width="200" height="200" as="geometry"/>
                </mxCell>
                <mxCell id="10" value="n:n" style="text;html=1;align=center;verticalAlign=middle;resizable=0;points=[];autosize=1;strokeColor=none;fillColor=none;" vertex="1" parent="1">
                    <mxGeometry x="260" y="480" width="40" height="30" as="geometry"/>
                </mxCell>
                <mxCell id="11" value="product" style="swimlane;whiteSpace=wrap;html=1;" vertex="1" parent="1">
                    <mxGeometry x="820" y="310" width="200" height="200" as="geometry"/>
                </mxCell>
                <mxCell id="12" value="1:1" style="text;html=1;align=center;verticalAlign=middle;resizable=0;points=[];autosize=1;strokeColor=none;fillColor=none;" vertex="1" parent="1">
                    <mxGeometry x="760" y="310" width="40" height="30" as="geometry"/>
                </mxCell>
                <mxCell id="13" value="1:1" style="text;html=1;align=center;verticalAlign=middle;resizable=0;points=[];autosize=1;strokeColor=none;fillColor=none;" vertex="1" parent="1">
                    <mxGeometry x="700" y="450" width="40" height="30" as="geometry"/>
                </mxCell>
            </root>
        </mxGraphModel>
    </diagram>
</mxfile>